<svg width="27" height="26" viewBox="0 0 27 26" fill="none" xmlns="http://www.w3.org/2000/svg">
<path d="M13.0817 0.652588C5.85689 0.652588 0 6.24905 0 13.1526C0 20.0561 5.85689 25.6526 13.0817 25.6526C20.3065 25.6526 26.1634 20.0561 26.1634 13.1526C26.1634 6.24905 20.3065 0.652588 13.0817 0.652588ZM13.0817 3.36865C18.7367 3.36865 23.3193 7.75042 23.3193 13.1526C23.3193 18.5548 18.7367 22.935 13.0817 22.935C7.4267 22.935 2.84405 18.5548 2.84405 13.1526C2.84407 7.75042 7.4267 3.36865 13.0817 3.36865ZM18.0943 7.21692L10.5123 14.4633L8.05309 12.1135L5.64019 14.4175L8.0994 16.7674L10.5283 19.0883L12.9396 16.7826L20.5232 9.53778L18.0943 7.21692Z" fill="white"/>
</svg>
