<svg width="24" height="24" viewBox="0 0 24 24" fill="none" xmlns="http://www.w3.org/2000/svg">
<path d="M2.25 3C2.25 2.80109 2.32902 2.61032 2.46967 2.46967C2.61032 2.32902 2.80109 2.25 3 2.25H6C6.19891 2.25 6.38968 2.32902 6.53033 2.46967C6.67098 2.61032 6.75 2.80109 6.75 3V6C6.75 6.19891 6.67098 6.38968 6.53033 6.53033C6.38968 6.67098 6.19891 6.75 6 6.75H3C2.80109 6.75 2.61032 6.67098 2.46967 6.53033C2.32902 6.38968 2.25 6.19891 2.25 6V3ZM9.75 3C9.75 2.80109 9.82902 2.61032 9.96967 2.46967C10.1103 2.32902 10.3011 2.25 10.5 2.25H13.5C13.6989 2.25 13.8897 2.32902 14.0303 2.46967C14.171 2.61032 14.25 2.80109 14.25 3V6C14.25 6.19891 14.171 6.38968 14.0303 6.53033C13.8897 6.67098 13.6989 6.75 13.5 6.75H10.5C10.3011 6.75 10.1103 6.67098 9.96967 6.53033C9.82902 6.38968 9.75 6.19891 9.75 6V3ZM17.25 3C17.25 2.80109 17.329 2.61032 17.4697 2.46967C17.6103 2.32902 17.8011 2.25 18 2.25H21C21.1989 2.25 21.3897 2.32902 21.5303 2.46967C21.671 2.61032 21.75 2.80109 21.75 3V6C21.75 6.19891 21.671 6.38968 21.5303 6.53033C21.3897 6.67098 21.1989 6.75 21 6.75H18C17.8011 6.75 17.6103 6.67098 17.4697 6.53033C17.329 6.38968 17.25 6.19891 17.25 6V3ZM2.25 10.5C2.25 10.3011 2.32902 10.1103 2.46967 9.96967C2.61032 9.82902 2.80109 9.75 3 9.75H6C6.19891 9.75 6.38968 9.82902 6.53033 9.96967C6.67098 10.1103 6.75 10.3011 6.75 10.5V13.5C6.75 13.6989 6.67098 13.8897 6.53033 14.0303C6.38968 14.171 6.19891 14.25 6 14.25H3C2.80109 14.25 2.61032 14.171 2.46967 14.0303C2.32902 13.8897 2.25 13.6989 2.25 13.5V10.5ZM9.75 10.5C9.75 10.3011 9.82902 10.1103 9.96967 9.96967C10.1103 9.82902 10.3011 9.75 10.5 9.75H13.5C13.6989 9.75 13.8897 9.82902 14.0303 9.96967C14.171 10.1103 14.25 10.3011 14.25 10.5V13.5C14.25 13.6989 14.171 13.8897 14.0303 14.0303C13.8897 14.171 13.6989 14.25 13.5 14.25H10.5C10.3011 14.25 10.1103 14.171 9.96967 14.0303C9.82902 13.8897 9.75 13.6989 9.75 13.5V10.5ZM17.25 10.5C17.25 10.3011 17.329 10.1103 17.4697 9.96967C17.6103 9.82902 17.8011 9.75 18 9.75H21C21.1989 9.75 21.3897 9.82902 21.5303 9.96967C21.671 10.1103 21.75 10.3011 21.75 10.5V13.5C21.75 13.6989 21.671 13.8897 21.5303 14.0303C21.3897 14.171 21.1989 14.25 21 14.25H18C17.8011 14.25 17.6103 14.171 17.4697 14.0303C17.329 13.8897 17.25 13.6989 17.25 13.5V10.5ZM2.25 18C2.25 17.8011 2.32902 17.6103 2.46967 17.4697C2.61032 17.329 2.80109 17.25 3 17.25H6C6.19891 17.25 6.38968 17.329 6.53033 17.4697C6.67098 17.6103 6.75 17.8011 6.75 18V21C6.75 21.1989 6.67098 21.3897 6.53033 21.5303C6.38968 21.671 6.19891 21.75 6 21.75H3C2.80109 21.75 2.61032 21.671 2.46967 21.5303C2.32902 21.3897 2.25 21.1989 2.25 21V18ZM9.75 18C9.75 17.8011 9.82902 17.6103 9.96967 17.4697C10.1103 17.329 10.3011 17.25 10.5 17.25H13.5C13.6989 17.25 13.8897 17.329 14.0303 17.4697C14.171 17.6103 14.25 17.8011 14.25 18V21C14.25 21.1989 14.171 21.3897 14.0303 21.5303C13.8897 21.671 13.6989 21.75 13.5 21.75H10.5C10.3011 21.75 10.1103 21.671 9.96967 21.5303C9.82902 21.3897 9.75 21.1989 9.75 21V18ZM17.25 18C17.25 17.8011 17.329 17.6103 17.4697 17.4697C17.6103 17.329 17.8011 17.25 18 17.25H21C21.1989 17.25 21.3897 17.329 21.5303 17.4697C21.671 17.6103 21.75 17.8011 21.75 18V21C21.75 21.1989 21.671 21.3897 21.5303 21.5303C21.3897 21.671 21.1989 21.75 21 21.75H18C17.8011 21.75 17.6103 21.671 17.4697 21.5303C17.329 21.3897 17.25 21.1989 17.25 21V18Z" fill="black" stroke="black" stroke-width="0.0625"/>
</svg>
