<svg width="25" height="26" viewBox="0 0 25 26" fill="none" xmlns="http://www.w3.org/2000/svg">
<path fill-rule="evenodd" clip-rule="evenodd" d="M0 13.1526C0 6.24905 5.59646 0.652588 12.5 0.652588C19.4035 0.652588 25 6.24905 25 13.1526C25 20.0561 19.4035 25.6526 12.5 25.6526C5.59646 25.6526 0 20.0561 0 13.1526ZM22.2824 13.1526C22.2824 7.75042 17.9035 3.36865 12.5 3.36865C7.09646 3.36865 2.7176 7.75042 2.71758 13.1526C2.71758 18.5548 7.09646 22.935 12.5 22.935C17.9035 22.935 22.2824 18.5548 22.2824 13.1526ZM16.1166 9.56909V11.5191C16.8916 11.5191 17.6666 12.2991 17.6666 13.2092V17.7593C17.6666 18.5393 16.8916 19.3193 15.9874 19.3193H8.88325C8.10825 19.3193 7.33325 18.5393 7.33325 17.6293V13.0792C7.33325 12.2991 8.10825 11.5191 8.88325 11.5191V9.56909C8.88325 7.74904 10.6916 6.31901 12.4999 6.31901C14.3082 6.31901 16.1166 7.74904 16.1166 9.56909ZM10.5624 11.5191H14.4374V9.56909C14.4374 8.52906 13.5332 7.87905 12.4999 7.87905C11.4666 7.87905 10.5624 8.52906 10.5624 9.56909V11.5191Z" fill="white"/>
</svg>
