<svg width="25" height="25" viewBox="0 0 25 25" fill="none" xmlns="http://www.w3.org/2000/svg">
<path fill-rule="evenodd" clip-rule="evenodd" d="M0 12.5C0 5.59646 5.59646 0 12.5 0C19.4035 0 25 5.59646 25 12.5C25 19.4035 19.4035 25 12.5 25C5.59646 25 0 19.4035 0 12.5ZM3.36532 8.99192C4.357 6.41077 6.41094 4.35604 8.99203 3.36398L10.375 6.65C9.52164 6.96099 8.74632 7.45423 8.10301 8.09538C7.45969 8.73653 6.96385 9.51019 6.65 10.3625L3.36532 8.99192ZM8.98175 21.6307C6.40573 20.6376 4.35608 18.5857 3.36561 16.0087L6.65 14.65C6.96167 15.5001 7.45546 16.2717 8.09676 16.9109C8.73806 17.55 9.51137 18.0412 10.3625 18.35L8.98175 21.6307ZM21.6307 16.0182C20.639 18.5904 18.5917 20.6382 16.0195 21.6303L14.6625 18.35C15.5098 18.0361 16.2786 17.5413 16.9155 16.9002C17.5523 16.2591 18.0418 15.4869 18.35 14.6375L21.6307 16.0182ZM16.0244 3.37031C18.594 4.3633 20.6391 6.41021 21.6303 8.98054L18.35 10.3375C18.0369 9.49515 17.5452 8.73054 16.9087 8.09618C16.2722 7.46182 15.5059 6.97273 14.6625 6.6625L16.0244 3.37031ZM8.75 12.5C8.75 14.575 10.425 16.25 12.5 16.25C14.575 16.25 16.25 14.575 16.25 12.5C16.25 10.425 14.575 8.75 12.5 8.75C10.425 8.75 8.75 10.425 8.75 12.5Z" fill="white"/>
</svg>
